<?xml version="1.0" standalone="no"?>
<!DOCTYPE svg PUBLIC "-//W3C//DTD SVG 20010904//EN"
 "http://www.w3.org/TR/2001/REC-SVG-20010904/DTD/svg10.dtd">
<svg version="1.0" xmlns="http://www.w3.org/2000/svg"
 width="236.000000pt" height="236.000000pt" viewBox="0 0 236.000000 236.000000"
 preserveAspectRatio="xMidYMid meet">
<metadata>
Created by potrace 1.11, written by Peter Selinger 2001-2013
</metadata>
<g transform="translate(0.000000,236.000000) scale(0.100000,-0.100000)"
fill="#000000" stroke="none">
<path d="M0 1180 l0 -1180 1180 0 1180 0 0 1180 0 1180 -1180 0 -1180 0 0
-1180z m1294 1015 c204 -53 357 -220 389 -425 32 -209 -82 -446 -230 -481
-175 -40 -302 162 -195 309 38 53 47 91 32 137 -21 65 -98 99 -163 71 -83 -34
-98 -125 -36 -211 31 -43 34 -54 34 -115 0 -60 -4 -74 -30 -111 -82 -116 -249
-109 -333 14 -40 58 -76 133 -92 190 -19 69 -8 226 19 299 94 244 360 387 605
323z m590 -981 c127 -33 231 -110 307 -227 122 -188 97 -444 -58 -617 -61 -68
-131 -113 -230 -146 -69 -23 -88 -26 -168 -21 -147 9 -252 57 -357 162 -68 66
-123 181 -123 254 0 104 72 182 174 189 83 6 142 -22 179 -83 57 -97 68 -110
104 -123 45 -17 76 -11 117 24 43 36 58 89 38 137 -23 54 -69 79 -137 74 -83
-7 -131 8 -177 56 -108 112 -71 268 75 322 51 19 181 18 256 -1z m-1131 -15
c45 -15 97 -66 113 -111 52 -142 -59 -282 -209 -265 -91 11 -160 -39 -160
-117 0 -80 59 -133 136 -123 48 7 78 34 112 102 34 70 85 105 162 112 77 6
136 -23 178 -92 43 -70 41 -135 -10 -235 -89 -176 -260 -280 -461 -280 -269 0
-488 203 -510 475 -8 95 8 175 56 271 63 128 186 228 331 269 62 17 201 14
262 -6z"/>
</g>
</svg>
